<svg width="62" height="56" viewBox="0 0 62 56" fill="none" xmlns="http://www.w3.org/2000/svg">
<path d="M15.4677 0.26503C18.2102 -0.203832 21.0225 -0.0491662 23.6975 0.717626C26.3725 1.48442 28.8418 2.84379 30.9236 4.69553L31.0382 4.79813L31.1436 4.70486C33.1304 2.95534 35.4662 1.65106 37.9952 0.879028C40.5241 0.106991 43.1881 -0.115048 45.8093 0.227721L46.5716 0.339649C49.8756 0.912068 52.9639 2.37039 55.5094 4.56019C58.0549 6.74999 59.9628 9.58975 61.0311 12.7787C62.0994 15.9677 62.2883 19.3873 61.5778 22.6752C60.8674 25.9631 59.284 28.9971 56.9953 31.4558L56.4376 32.031L56.2888 32.1584L33.2042 55.1007C32.6714 55.6297 31.9657 55.9471 31.2176 55.994C30.4695 56.0408 29.7299 55.814 29.1357 55.3556L28.8444 55.1007L5.62653 32.0247C3.16691 29.6234 1.41768 26.5859 0.572565 23.2485C-0.272553 19.9111 -0.180578 16.4042 0.838303 13.116C1.85718 9.82787 3.76321 6.88684 6.34529 4.61865C8.92737 2.35046 12.0847 0.843626 15.4677 0.26503Z" fill="#FF5F5F"/>
</svg>